<svg class="svg-icon" style="width: 1.001953125em; height: 1em;vertical-align: middle;fill: currentColor;overflow: hidden;" viewBox="0 0 1026 1024" version="1.1" xmlns="http://www.w3.org/2000/svg"><path d="M707.858628 513.064449c-59.609148 0-106.444906 46.835759-106.444906 106.444906s46.835759 106.444906 106.444906 106.444906c59.609148 0 106.444906-46.835759 106.444906-106.444906S767.467775 513.064449 707.858628 513.064449zM707.858628 694.02079c-42.577963 0-74.511435-34.06237-74.511435-74.511435 0-42.577963 31.933472-74.511435 74.511435-74.511435s74.511435 34.06237 74.511435 74.511435C782.370062 662.087318 748.307692 694.02079 707.858628 694.02079z"  /><path d="M388.523909 619.509356c0-59.609148-46.835759-106.444906-106.444906-106.444906-59.609148 0-106.444906 46.835759-106.444906 106.444906s46.835759 106.444906 106.444906 106.444906C341.68815 725.954262 388.523909 679.118503 388.523909 619.509356zM282.079002 694.02079c-42.577963 0-74.511435-34.06237-74.511435-74.511435 0-42.577963 31.933472-74.511435 74.511435-74.511435s74.511435 34.06237 74.511435 74.511435C356.590437 662.087318 322.528067 694.02079 282.079002 694.02079z"  /><path d="M541.804574 828.141372c-19.160083-8.515593-29.804574-44.706861-29.804574-97.929314l-34.06237 0c0 53.222453-10.644491 89.413721-29.804574 97.929314-25.546778 12.773389-68.12474-14.902287-80.898129-25.546778l-21.288981 25.546778c6.386694 4.257796 46.835759 36.191268 87.284823 36.191268 8.515593 0 19.160083-2.128898 27.675676-4.257796 12.773389-6.386694 23.417879-17.031185 31.933472-34.06237 8.515593 17.031185 19.160083 27.675676 34.06237 34.06237 48.964657 21.288981 108.573805-25.546778 114.960499-31.933472l-21.288981-25.546778C607.800416 813.239085 567.351351 838.785863 541.804574 828.141372z"  /><path d="M973.970894 502.419958c-19.160083-14.902287-51.093555-21.288981-74.511435-34.06237-2.128898-14.902287 31.933472-172.440748-61.738046-293.787942 10.644491-17.031185 23.417879-34.06237 38.320166-55.351351 17.031185-2.128898 36.191268-19.160083 57.480249-48.964657 10.644491-14.902287 53.222453-21.288981 53.222453-53.222453-2.128898-12.773389-8.515593-17.031185-21.288981-17.031185-17.031185 0-42.577963 10.644491-68.12474 34.06237-23.417879 19.160083-48.964657 48.964657-48.964657 68.12474-12.773389 17.031185-23.417879 31.933472-34.06237 46.835759-44.706861-46.835759-114.960499-85.155925-217.147609-104.316008-31.933472-8.515593-61.738046-10.644491-91.54262-10.644491-295.91684 0-374.686071 268.241164-374.686071 268.241164-36.191268 6.386694-112.831601 27.675676-127.733888 57.480249-4.257796 6.386694-4.257796 14.902287 0 21.288981 2.128898 4.257796 4.257796 8.515593 10.644491 14.902287 0 0 0 0 2.128898 2.128898 6.386694 6.386694 14.902287 10.644491 25.546778 17.031185 21.288981 10.644491 51.093555 23.417879 87.284823 36.191268-48.964657 61.738046-76.640333 134.120582-80.898129 206.503119 0 4.257796 0 8.515593 0 12.773389l0 2.128898c0 4.257796 0 8.515593 0 10.644491 0 4.257796 0 8.515593 0 12.773389l0 2.128898c0 4.257796 0 8.515593 0 10.644491 0 4.257796 0 8.515593 2.128898 12.773389 0 4.257796 0 8.515593 2.128898 12.773389 2.128898 8.515593 2.128898 17.031185 4.257796 25.546778 17.031185 74.511435 61.738046 134.120582 129.862786 174.569647 74.511435 44.706861 174.569647 65.995842 300.174636 65.995842 144.765073 0 255.467775-29.804574 329.97921-87.284823 34.06237-27.675676 61.738046-59.609148 80.898129-97.929314 17.031185-38.320166 27.675676-80.898129 27.675676-125.60499 0-4.257796 0-8.515593 0-14.902287l0-2.128898c0-4.257796 0-10.644491 0-14.902287-2.128898-21.288981-4.257796-40.449064-8.515593-61.738046 14.902287 0 27.675676 2.128898 38.320166 2.128898 36.191268 0 57.480249-4.257796 63.866944-14.902287 0-2.128898 2.128898-2.128898 2.128898-4.257796C1031.451143 562.029106 1016.548857 536.482328 973.970894 502.419958zM507.742204 68.12474c27.675676 0 57.480249 2.128898 87.284823 8.515593 91.54262 14.902287 159.66736 46.835759 206.503119 97.929314-31.933472 51.093555-48.964657 89.413721-53.222453 100.058212-25.546778-10.644491-48.964657-17.031185-48.964657-17.031185l0 12.773389-6.386694 6.386694 0 10.644491-6.386694 8.515593c63.866944 12.773389 93.671518 46.835759 93.671518 46.835759l0-14.902287 8.515593-4.257796-2.128898-10.644491 6.386694-8.515593c-6.386694-6.386694-12.773389-10.644491-19.160083-14.902287l2.128898 0c0 0 12.773389-34.06237 46.835759-89.413721 42.577963 61.738046 59.609148 142.636175 48.964657 244.823285-2.128898-2.128898-6.386694-4.257796-8.515593-6.386694-46.835759-34.06237-129.862786-91.54262-315.076923-127.733888-138.378378-25.546778-306.561331-14.902287-378.943867-8.515593C184.149688 263.983368 265.047817 68.12474 507.742204 68.12474zM956.939709 566.286902c-10.644491 0-23.417879 0-38.320166-2.128898l-42.577963-2.128898 10.644491 42.577963c4.257796 19.160083 8.515593 38.320166 8.515593 55.351351 0 4.257796 0 8.515593 0 12.773389l0 2.128898c0 4.257796 0 8.515593 0 12.773389 0 42.577963-8.515593 80.898129-25.546778 112.831601-17.031185 34.06237-40.449064 63.866944-70.253638 87.284823-70.253638 53.222453-174.569647 80.898129-310.819127 80.898129-119.218295 0-215.018711-21.288981-283.143451-61.738046-61.738046-36.191268-100.058212-89.413721-114.960499-155.409563-2.128898-6.386694-2.128898-14.902287-4.257796-21.288981 0-4.257796 0-6.386694-2.128898-10.644491 0-4.257796 0-6.386694 0-10.644491L84.091476 706.794179c0-2.128898 0-6.386694 0-10.644491s0-8.515593 0-12.773389c0-2.128898 0-6.386694 0-8.515593l0-2.128898 0-2.128898c0-4.257796 0-8.515593 0-10.644491 4.257796-65.995842 29.804574-129.862786 74.511435-187.343035l27.675676-36.191268-42.577963-14.902287c-34.06237-10.644491-61.738046-23.417879-80.898129-34.06237-10.644491-4.257796-17.031185-10.644491-19.160083-12.773389l-2.128898-2.128898c0 0 0 0-2.128898-2.128898 10.644491-12.773389 97.929314-31.933472 97.929314-31.933472 2.128898 0 229.920998-29.804574 404.490644 4.257796 178.827443 34.06237 255.467775 89.413721 302.303534 123.476091 8.515593 6.386694 25.546778 19.160083 25.546778 19.160083l14.902287 8.515593c12.773389 8.515593 27.675676 12.773389 38.320166 17.031185 12.773389 4.257796 23.417879 8.515593 31.933472 14.902287 25.546778 21.288981 34.06237 31.933472 38.320166 38.320166C986.744283 566.286902 976.099792 566.286902 956.939709 566.286902z"  /></svg>